<svg xmlns="http://www.w3.org/2000/svg" viewBox="0 0 180.04 23.71"><path fill="#fff" d="M67.67 13.47l-1.75 9.84h-4.87L57.49.4h4.96l1.33 10.66.16 3.63.44-3.6L66.26.4h3.4l1.75 10.69.38 3.78.26-3.82L73.51.39h5L74.59 23.3h-4.84l-1.69-9.84-.19-3.09-.22 3.09zm24.08 4.93v4.9h-11.2V.4h11.1v4.71h-5.94v4.26h5.31v4.77h-5.31v4.26h6.04zm12.18 4.9h-9.89v-4.96h2.45V5.33h-2.45V.4h9.89v4.93h-2.39v13.01h2.39v4.96zm8.53.38c-2.38 0-4.05-.5-5.01-1.5a6.18 6.18 0 0 1-1.45-4.45v-3.24h5.38v3.15c-.02.36.06.73.24 1.05.23.29.6.43.97.38.34.05.68-.1.88-.38.15-.33.22-.69.21-1.05v-1.43c0-.73-.36-1.42-.97-1.83-.71-.52-1.44-.99-2.21-1.41-.34-.19-.68-.4-1.02-.62s-.67-.46-.99-.72a6.435 6.435 0 0 1-1.64-1.88c-.46-.86-.69-1.83-.65-2.8V5.77c-.14-1.62.46-3.22 1.64-4.36a7.084 7.084 0 0 1 4.72-1.4c1.64-.12 3.27.37 4.58 1.37a5.076 5.076 0 0 1 1.56 4.01v2.48h-5.09V5.74c.03-.4-.05-.79-.23-1.14a1 1 0 0 0-.86-.32c-.32-.03-.64.1-.84.35-.18.34-.27.73-.24 1.12v.77c0 .65.36 1.24.92 1.56.62.4 1.33.82 2.13 1.27.34.19.68.4 1.03.62s.69.46 1.03.71c.69.52 1.26 1.17 1.7 1.91.49.88.72 1.89.68 2.89v2.36c.12 1.62-.46 3.21-1.59 4.37a7.04 7.04 0 0 1-4.9 1.48m15.43-.03c-1.82.15-3.62-.43-5-1.62-1.08-1.08-1.62-2.83-1.62-5.25V6.76c0-2.38.6-4.09 1.81-5.14a7.129 7.129 0 0 1 4.88-1.57c1.78-.12 3.54.41 4.96 1.49 1.17 1 1.75 2.58 1.75 4.74v3.79h-5.54V6.76c.03-.54-.05-1.08-.24-1.59a.981.981 0 0 0-.97-.48.955.955 0 0 0-.97.57c-.19.62-.28 1.26-.24 1.91v9.19c-.04.65.04 1.29.22 1.91.18.38.58.59.99.54.39.05.78-.15.95-.51.18-.52.27-1.07.26-1.62v-3.63h5.57v3.98c-.04 2.44-.65 4.15-1.81 5.14a7.529 7.529 0 0 1-4.99 1.48m17.28-.34V14.3h-2.61v9.01h-5.22V.4h5.22v8.91h2.61V.4h5.22v22.91h-5.22zm19.35-4.91v4.9h-11.2V.4h11.1v4.71h-5.95v4.26h5.31v4.77h-5.31v4.26h6.05zm8.65-13.65h-1.18v5.69h1.18c.39.04.78-.06 1.1-.3.23-.28.33-.64.3-1V6.21c.04-.4-.07-.8-.3-1.13-.31-.26-.7-.38-1.1-.33m-.41 10.31h-.76v8.25h-4.96V.4h6.49c1.65-.14 3.3.3 4.66 1.26.96.84 1.45 2.3 1.45 4.38v2.92c.04.83-.13 1.66-.51 2.4-.35.59-.88 1.05-1.53 1.29.66.2 1.2.67 1.5 1.29.28.77.41 1.58.38 2.4v5.34c0 .32.04.65.14.95.08.26.23.49.43.67h-5.31a.975.975 0 0 1-.33-.59c-.08-.34-.12-.69-.11-1.03v-5.02c.05-.44-.06-.89-.32-1.26-.34-.26-.78-.38-1.21-.33M39.15 23.46c-3.49 0-4.27-4.71-5.35-11.23-.21-1.26-.48-2.93-.79-4.41-.31 1.48-.58 3.15-.79 4.41-1.08 6.52-1.86 11.23-5.35 11.23s-4.27-4.71-5.35-11.23c-.2-1.26-.48-2.93-.79-4.41-.31 1.48-.58 3.15-.79 4.41-1.08 6.52-1.85 11.23-5.35 11.23s-4.27-4.71-5.35-11.23c-.21-1.26-.49-2.93-.79-4.42-.31 1.48-.58 3.16-.79 4.42-1.08 6.52-1.85 11.23-5.35 11.23-1.28 0-2.31-1.03-2.31-2.31 0-.97.9-1.41 1.44-2.14 1.32-1.79 1.26-5.13 1.66-7.53C4.18 4.96 4.96.26 8.45.26s4.27 4.71 5.35 11.23c.21 1.26.49 2.93.79 4.41.3-1.48.58-3.15.79-4.41C16.46 4.96 17.24.26 20.73.26S25 4.97 26.08 11.49c.21 1.26.48 2.93.79 4.41.31-1.48.58-3.16.79-4.41C28.74 4.97 29.52.26 33.01.26s4.27 4.71 5.35 11.23c.21 1.26.48 2.93.79 4.41.31-1.48.58-3.16.79-4.41C41.02 4.97 41.8.26 45.29.26c1.28 0 2.31 1.03 2.31 2.31 0 .97-.89 1.51-1.49 2.2-1.38 1.61-1.22 5.07-1.61 7.47-1.08 6.52-1.86 11.23-5.35 11.23"/></svg>